<svg viewBox="0 0 560 400" xmlns="http://www.w3.org/2000/svg" font-family="DejaVu Sans">
  <rect x="0" y="0" width="560" height="400" fill="#ffffff"/>
  <text x="280" y="22" text-anchor="middle" font-size="15" font-weight="bold">Comptage des zéros N(T)</text>
  <text x="280" y="40" text-anchor="middle" font-size="11.5">escalier réel (marches à chaque zéro) vs formule asymptotique</text>

  <!-- axes -->
  <line x1="50" y1="330" x2="540" y2="330" stroke="#333" stroke-width="1.3"/>
  <line x1="50" y1="330" x2="50" y2="50" stroke="#333" stroke-width="1.3"/>
  <text x="50" y="346" text-anchor="middle" font-size="11">0</text>
  <text x="295" y="346" text-anchor="middle" font-size="11">20</text>
  <text x="540" y="346" text-anchor="middle" font-size="11">40</text>
  <text x="520" y="365" font-size="13" font-weight="bold">T</text>
  <text x="20" y="60" font-size="13" font-weight="bold">N(T)</text>

  <!-- escalier reel -->
  <g stroke="#1a4f8a" stroke-width="2.6" fill="none">
    <line x1="50.0" y1="330.0" x2="223.2" y2="330.0"/>
    <line x1="223.2" y1="330.0" x2="223.2" y2="292.0"/>
    <line x1="223.2" y1="292.0" x2="307.5" y2="292.0"/>
    <line x1="307.5" y1="292.0" x2="307.5" y2="254.0"/>
    <line x1="307.5" y1="254.0" x2="356.4" y2="254.0"/>
    <line x1="356.4" y1="254.0" x2="356.4" y2="216.0"/>
    <line x1="356.4" y1="216.0" x2="422.7" y2="216.0"/>
    <line x1="422.7" y1="216.0" x2="422.7" y2="178.0"/>
    <line x1="422.7" y1="178.0" x2="453.5" y2="178.0"/>
    <line x1="453.5" y1="178.0" x2="453.5" y2="140.0"/>
    <line x1="453.5" y1="140.0" x2="510.4" y2="140.0"/>
    <line x1="510.4" y1="140.0" x2="510.4" y2="102.0"/>
    <line x1="510.4" y1="102.0" x2="540.0" y2="102.0"/>
  </g>

  <!-- courbe lisse -->
  <polyline points="148.0,330.0 157.8,330.0 167.6,330.0 177.4,328.0 187.2,325.3 197.0,322.4 206.8,319.1 216.6,315.5 226.4,311.6 236.2,307.5 246.0,303.1 255.8,298.4 265.6,293.6 275.4,288.5 285.2,283.2 295.0,277.7 304.8,272.0 314.6,266.1 324.4,260.0 334.2,253.8 344.0,247.4 353.8,240.8 363.6,234.1 373.4,227.2 383.2,220.2 393.0,213.0 402.8,205.7 412.6,198.3 422.4,190.7 432.2,183.1 442.0,175.2 451.8,167.3 461.6,159.2 471.4,151.1 481.2,142.8 491.0,134.4 500.8,125.9 510.6,117.3 520.4,108.6 530.2,99.8 540.0,90.9"
            fill="none" stroke="#c0392b" stroke-width="2" stroke-dasharray="6,3"/>

  <!-- legende -->
  <line x1="360" y1="70" x2="380" y2="70" stroke="#1a4f8a" stroke-width="2.6"/>
  <text x="386" y="74" font-size="11">N(T) réel (marches)</text>
  <line x1="360" y1="88" x2="380" y2="88" stroke="#c0392b" stroke-width="2" stroke-dasharray="6,3"/>
  <text x="386" y="92" font-size="11">T/(2π)·ln(T/2πe)+7/8</text>

  <text x="280" y="378" text-anchor="middle" font-size="10.5" fill="#555">À T=100 000 : formule SANS « e » → 49 346 au lieu de 138 067</text>
  <text x="280" y="393" text-anchor="middle" font-size="10" fill="#777">(piège documenté du LAB — recalculé via mpmath)</text>
</svg>
